<?xml version="1.0" encoding="UTF-8"?>
<svg xmlns="http://www.w3.org/2000/svg" xmlns:xlink="http://www.w3.org/1999/xlink" width="649.16pt" height="137.29pt" viewBox="0 0 649.16 137.29" version="1.1">
<defs>
<clipPath id="clip1">
  <path d="M 395 0 L 555 0 L 555 137.289063 L 395 137.289063 Z M 395 0 "/>
</clipPath>
<clipPath id="clip2">
  <path d="M 541 0 L 649.160156 0 L 649.160156 137.289063 L 541 137.289063 Z M 541 0 "/>
</clipPath>
<clipPath id="clip3">
  <path d="M 534 0 L 649.160156 0 L 649.160156 137.289063 L 534 137.289063 Z M 534 0 "/>
</clipPath>
</defs>
<g id="surface1">
<path style=" stroke:none;fill-rule:evenodd;fill:rgb(13.699341%,12.199402%,12.5%);fill-opacity:1;" d="M 0 35.066406 L 122.191406 35.066406 C 130.703125 35.066406 138.019531 27.925781 138.441406 19.195313 L 139.21875 3.332031 L 17.027344 3.332031 C 8.507813 3.332031 1.195313 10.46875 0.769531 19.195313 "/>
<path style=" stroke:none;fill-rule:evenodd;fill:rgb(13.699341%,12.199402%,12.5%);fill-opacity:1;" d="M 152.378906 35.066406 L 247.820313 35.066406 C 256.335938 35.066406 263.652344 27.925781 264.078125 19.195313 L 264.847656 3.332031 L 158.375 3.332031 "/>
<path style=" stroke:none;fill-rule:evenodd;fill:rgb(13.699341%,12.199402%,12.5%);fill-opacity:1;" d="M 26.597656 133.652344 L 71.164063 133.652344 L 95.785156 3.332031 L 51.21875 3.332031 Z M 26.597656 133.652344 "/>
<path style=" stroke:none;fill-rule:evenodd;fill:rgb(13.699341%,12.199402%,12.5%);fill-opacity:1;" d="M 130.070313 133.652344 L 174.636719 133.652344 L 199.253906 3.332031 L 154.6875 3.332031 Z M 130.070313 133.652344 "/>
<path style=" stroke:none;fill-rule:evenodd;fill:rgb(13.699341%,12.199402%,12.5%);fill-opacity:1;" d="M 141.566406 86.488281 L 237.011719 86.488281 C 245.527344 86.488281 252.839844 79.347656 253.261719 70.621094 L 254.035156 54.753906 L 147.5625 54.753906 "/>
<path style=" stroke:none;fill-rule:evenodd;fill:rgb(13.699341%,12.199402%,12.5%);fill-opacity:1;" d="M 134.640625 133.652344 L 225.863281 133.652344 C 234.375 133.652344 241.691406 126.511719 242.113281 117.78125 L 242.890625 101.914063 L 140.640625 101.914063 "/>
<path style=" stroke:none;fill-rule:evenodd;fill:rgb(92.498779%,0%,54.899597%);fill-opacity:1;" d="M 255.644531 133.652344 L 300.207031 133.652344 L 328.257813 3.332031 L 306.726563 3.332031 C 288.960938 2.976563 281.90625 12.707031 277.863281 30.402344 "/>
<path style=" stroke:none;fill-rule:evenodd;fill:rgb(92.89856%,10.998535%,14.099121%);fill-opacity:1;" d="M 255.644531 133.652344 L 300.207031 133.652344 L 314.234375 68.488281 L 269.667969 68.488281 Z M 255.644531 133.652344 "/>
<path style=" stroke:none;fill-rule:evenodd;fill:rgb(96.099854%,50.999451%,12.199402%);fill-opacity:1;" d="M 255.703125 133.652344 L 300.210938 133.652344 L 314.234375 68.488281 L 313.9375 68.488281 Z M 255.703125 133.652344 "/>
<path style=" stroke:none;fill-rule:evenodd;fill:rgb(13.699341%,12.199402%,12.5%);fill-opacity:1;" d="M 490.023438 134.324219 L 519.382813 134.324219 L 547.433594 4.003906 C 510.234375 1.347656 512.59375 15.675781 504.574219 59.492188 L 497.789063 94.367188 L 491.011719 59.492188 C 482.988281 15.675781 485.898438 3.410156 448.144531 4.003906 L 430.488281 4.003906 L 402.703125 134.324219 L 435.78125 134.324219 L 456.164063 41.222656 L 476.203125 134.324219 "/>
<g clip-path="url(#clip1)" clip-rule="nonzero">
<path style="fill:none;stroke-width:2.16;stroke-linecap:butt;stroke-linejoin:miter;stroke:rgb(13.699341%,12.199402%,12.5%);stroke-opacity:1;stroke-miterlimit:22.926;" d="M 4900.234375 29.657812 L 5193.828125 29.657812 L 5474.335938 1332.860937 C 5102.34375 1359.423437 5125.9375 1216.142187 5045.742188 777.978125 L 4977.890625 429.228125 L 4910.117188 777.978125 C 4829.882813 1216.142187 4858.984375 1338.798437 4481.445313 1332.860937 L 4304.882813 1332.860937 L 4027.03125 29.657812 L 4357.8125 29.657812 L 4561.640625 960.673437 L 4762.03125 29.657812 Z M 4900.234375 29.657812 " transform="matrix(0.1,0,0,-0.1,0,137.29)"/>
</g>
<g clip-path="url(#clip2)" clip-rule="nonzero">
<path style=" stroke:none;fill-rule:evenodd;fill:rgb(13.699341%,12.199402%,12.5%);fill-opacity:1;" d="M 604.746094 33.117188 C 593.867188 33.117188 582.214844 49.03125 578.726563 68.644531 C 575.230469 88.261719 581.222656 104.167969 592.101563 104.167969 C 602.988281 104.167969 614.640625 88.261719 618.132813 68.644531 C 621.621094 49.03125 615.632813 33.117188 604.746094 33.117188 M 610.800781 0.109375 C 639.292969 0.371094 655.371094 31.277344 646.699219 69.121094 C 638.035156 106.964844 607.894531 137.441406 579.402344 137.179688 C 550.910156 136.917969 534.828125 106.011719 543.5 68.167969 C 552.167969 30.320313 582.308594 -0.15625 610.800781 0.109375 "/>
</g>
<g clip-path="url(#clip3)" clip-rule="nonzero">
<path style="fill:none;stroke-width:2.16;stroke-linecap:butt;stroke-linejoin:miter;stroke:rgb(13.699341%,12.199402%,12.5%);stroke-opacity:1;stroke-miterlimit:22.926;" d="M 6047.460938 1041.728125 C 5938.671875 1041.728125 5822.148438 882.5875 5787.265625 686.454687 C 5752.304688 490.282812 5812.226563 331.220312 5921.015625 331.220312 C 6029.882813 331.220312 6146.40625 490.282812 6181.328125 686.454687 C 6216.210938 882.5875 6156.328125 1041.728125 6047.460938 1041.728125 Z M 6108.007813 1371.80625 C 6392.929688 1369.189062 6553.710938 1060.126562 6466.992188 681.689062 C 6380.351563 303.251562 6078.945313 -1.514063 5794.023438 1.103125 C 5509.101563 3.720312 5348.28125 312.782812 5435 691.220312 C 5521.679688 1069.696875 5823.085938 1374.4625 6108.007813 1371.80625 Z M 6108.007813 1371.80625 " transform="matrix(0.1,0,0,-0.1,0,137.29)"/>
</g>
<path style=" stroke:none;fill-rule:evenodd;fill:rgb(0%,68.199158%,93.699646%);fill-opacity:1;" d="M 314.867188 68.523438 L 352.675781 24.15625 C 359.75 15.867188 372.644531 3.324219 391.164063 3.324219 L 417.324219 3.324219 L 360.453125 68.523438 "/>
<path style=" stroke:none;fill-rule:evenodd;fill:rgb(0%,65.098572%,31.399536%);fill-opacity:1;" d="M 314.867188 68.523438 L 344.734375 33.480469 L 360.453125 68.523438 "/>
<path style=" stroke:none;fill-rule:evenodd;fill:rgb(65.098572%,80.799866%,21.998596%);fill-opacity:1;" d="M 314.867188 68.523438 L 333.886719 112.882813 C 337.441406 121.175781 345.023438 133.714844 363.535156 133.714844 L 389.703125 133.714844 L 360.453125 68.523438 "/>
</g>
</svg>
